<?xml version="1.0"?>
<svg xmlns="http://www.w3.org/2000/svg" id="Capa_1" enable-background="new 0 0 511.81 511.81" height="512px" viewBox="0 0 511.81 511.81" width="512px"><g><path d="m406.144 345.8h-30v30.5h-29.334v30h29.334v30.5h30v-30.5h30.666v-30h-30.666z" data-original="#000000" class="active-path" data-old_color="#000000" fill="#909090"/><path d="m406.14 272.659v-142.072l-130.577-130.577h-275.563v495.79h331.994c17.619 10.173 38.05 16 59.816 16 66.168 0 120-53.832 120-120 0-61.319-46.233-112.036-105.67-119.141zm-121.786-221.432 69.573 69.573h-69.573zm-254.354-21.217h224.354v120.79h121.786v122.023c-58.791 7.701-104.33 58.119-104.33 118.977 0 27.896 9.568 53.599 25.595 74h-267.405zm361.81 451.79c-49.626 0-90-40.374-90-90s40.374-90 90-90 90 40.374 90 90-40.374 90-90 90z" data-original="#000000" class="active-path" data-old_color="#000000" fill="#909090"/><path d="m74.81 196.467h256.333v30h-256.333z" data-original="#000000" class="active-path" data-old_color="#000000" fill="#909090"/><path d="m74.81 136.467h120v30h-120z" data-original="#000000" class="active-path" data-old_color="#000000" fill="#909090"/><path d="m74.81 316.467h120v30h-120z" data-original="#000000" class="active-path" data-old_color="#000000" fill="#909090"/><path d="m74.81 256.467h180v30h-180z" data-original="#000000" class="active-path" data-old_color="#000000" fill="#909090"/></g> </svg>
